<?xml version="1.0" encoding="UTF-8" standalone="no"?>
<!-- Created with Inkscape (http://www.inkscape.org/) -->

<svg
   version="1.1"
   id="svg2"
   width="652.98669"
   height="176.33333"
   viewBox="0 0 652.98669 176.33333"
   sodipodi:docname="nodejs.eps"
   xmlns:inkscape="http://www.inkscape.org/namespaces/inkscape"
   xmlns:sodipodi="http://sodipodi.sourceforge.net/DTD/sodipodi-0.dtd"
   xmlns="http://www.w3.org/2000/svg"
   xmlns:svg="http://www.w3.org/2000/svg">
  <defs
     id="defs6" />
  <sodipodi:namedview
     id="namedview4"
     pagecolor="#ffffff"
     bordercolor="#000000"
     borderopacity="0.25"
     inkscape:showpageshadow="2"
     inkscape:pageopacity="0.0"
     inkscape:pagecheckerboard="0"
     inkscape:deskcolor="#d1d1d1" />
  <g
     id="g8"
     inkscape:groupmode="layer"
     inkscape:label="ink_ext_XXXXXX"
     transform="matrix(1.3333333,0,0,-1.3333333,0,176.33333)">
    <g
       id="g10"
       transform="scale(0.1)">
      <path
         d="m 736.902,619.699 c 0,14.289 -7.519,27.426 -19.855,34.504 L 388.289,843.402 c -5.559,3.27 -11.793,4.973 -18.098,5.231 -0.57,0 -2.937,0 -3.398,0 -6.285,-0.258 -12.516,-1.961 -18.156,-5.231 L 19.8789,654.203 C 7.62109,647.125 0,633.988 0,619.699 L 0.722656,110.238 c 0,-7.078 3.679684,-13.6794 9.914044,-17.1482 6.1016,-3.6601 13.6446,-3.6601 19.7227,0 L 225.738,204.969 c 12.36,7.34 19.879,20.293 19.879,34.453 v 238.016 c 0,14.187 7.52,27.32 19.824,34.375 l 83.196,47.917 c 6.207,3.583 12.976,5.333 19.906,5.333 6.77,0 13.723,-1.75 19.746,-5.333 l 83.168,-47.917 c 12.309,-7.055 19.852,-20.188 19.852,-34.375 V 239.422 c 0,-14.16 7.625,-27.192 19.906,-34.453 L 706.543,93.0898 c 6.129,-3.6601 13.777,-3.6601 19.852,0 6.05,3.4688 9.863,10.0702 9.863,17.1482 l 0.644,509.461"
         style="fill:#28292a;fill-opacity:1;fill-rule:evenodd;stroke:none"
         id="path12" />
      <path
         d="m 2461.88,354.426 c 0,-3.543 -1.9,-6.824 -4.97,-8.59 L 2343.99,280.75 c -3.07,-1.77 -6.85,-1.77 -9.91,0 l -112.93,65.086 c -3.07,1.766 -4.96,5.047 -4.96,8.59 v 130.39 c 0,3.539 1.89,6.825 4.95,8.602 l 112.92,65.219 c 3.08,1.777 6.86,1.777 9.94,0 l 112.92,-65.219 c 3.06,-1.777 4.96,-5.063 4.96,-8.602 z m 30.51,965.614 c -6.15,3.42 -13.66,3.34 -19.74,-0.22 -6.06,-3.57 -9.79,-10.08 -9.79,-17.12 V 798.164 c 0,-4.957 -2.66,-9.555 -6.94,-12.035 -4.3,-2.488 -9.61,-2.488 -13.91,0 l -82.34,47.441 c -12.28,7.078 -27.4,7.067 -39.68,-0.015 L 1991.1,643.75 c -12.29,-7.094 -19.86,-20.199 -19.86,-34.387 V 229.672 c 0,-14.184 7.57,-27.293 19.85,-34.402 L 2319.96,5.33203 c 12.3,-7.10156 27.44,-7.10156 39.73,0 L 2688.62,195.27 c 12.28,7.109 19.85,20.218 19.85,34.402 v 946.468 c 0,14.39 -7.78,27.67 -20.36,34.68 l -195.72,109.22"
         style="fill:#28292a;fill-opacity:1;fill-rule:evenodd;stroke:none"
         id="path14" />
      <path
         d="m 3669.04,488.227 c 12.23,7.105 19.76,20.187 19.76,34.339 v 92.008 c 0,14.149 -7.53,27.242 -19.78,34.352 l -326.77,189.726 c -12.29,7.145 -27.47,7.161 -39.79,0.055 L 2973.68,648.898 c -12.28,-7.093 -19.85,-20.199 -19.85,-34.386 V 234.93 c 0,-14.282 7.66,-27.45 20.06,-34.508 L 3300.61,14.25 c 12.05,-6.87891 26.82,-6.94922 38.95,-0.2187 l 197.62,109.8397 c 6.27,3.488 10.17,10.07 10.21,17.231 0.05,7.16 -3.76,13.789 -9.97,17.347 l -330.85,189.899 c -6.18,3.539 -9.98,10.121 -9.98,17.226 v 118.957 c 0,7.094 3.78,13.66 9.94,17.199 l 102.97,59.368 c 6.13,3.539 13.7,3.539 19.82,0 l 103.03,-59.368 c 6.15,-3.539 9.93,-10.105 9.93,-17.199 v -93.593 c 0,-7.11 3.8,-13.672 9.96,-17.215 6.15,-3.551 13.73,-3.528 19.87,0.039 l 196.93,114.465"
         style="fill:#28292a;fill-opacity:1;fill-rule:evenodd;stroke:none"
         id="path16" />
      <path
         d="m 1334.94,840.699 c 12.28,7.094 27.42,7.094 39.7,0 l 328.85,-189.765 c 12.3,-7.094 19.87,-20.2 19.87,-34.403 V 236.699 c 0,-14.179 -7.57,-27.289 -19.86,-34.398 L 1374.66,12.3789 c -12.3,-7.08984 -27.44,-7.08984 -39.74,0 L 1006.15,202.301 c -12.279,7.109 -19.845,20.219 -19.845,34.398 v 379.848 c 0,14.187 7.566,27.293 19.865,34.387 l 328.77,189.765"
         style="fill:#6ec72e;fill-opacity:1;fill-rule:evenodd;stroke:none"
         id="path18" />
      <path
         d="m 4307.54,6.96094 c -11.33,0 -22.61,2.96094 -32.52,8.69926 l -103.53,61.2617 c -15.46,8.6484 -7.91,11.707 -2.81,13.4883 20.62,7.1601 24.8,8.8086 46.81,21.2888 2.29,1.289 5.33,0.801 7.7,-0.59 l 79.53,-47.2184 c 2.89,-1.6015 6.96,-1.6015 9.61,0 l 310.09,178.9804 c 2.88,1.649 4.74,4.969 4.74,8.391 v 357.855 c 0,3.504 -1.86,6.774 -4.82,8.551 l -309.96,178.82 c -2.86,1.676 -6.67,1.676 -9.55,0 L 3992.94,617.613 c -3.01,-1.722 -4.91,-5.097 -4.91,-8.496 V 251.262 c 0,-3.422 1.9,-6.672 4.89,-8.293 l 84.94,-49.078 c 46.09,-23.039 74.31,4.097 74.31,31.371 v 353.316 c 0,4.996 4.02,8.934 9.01,8.934 h 39.32 c 4.92,0 8.99,-3.938 8.99,-8.934 V 225.262 c 0,-61.524 -33.5,-96.793 -91.82,-96.793 -17.92,0 -32.03,0 -71.43,19.41 l -81.31,46.812 c -20.08,11.618 -32.52,33.321 -32.52,56.571 v 357.855 c 0,23.25 12.44,44.957 32.52,56.52 l 310.09,179.183 c 19.62,11.098 45.7,11.098 65.17,0 l 310.07,-179.183 c 20.08,-11.614 32.57,-33.27 32.57,-56.52 V 251.262 c 0,-23.25 -12.49,-44.883 -32.57,-56.571 L 4340.19,15.6602 c -9.91,-5.73832 -21.17,-8.69926 -32.65,-8.69926"
         style="fill:#6ec72e;fill-opacity:1;fill-rule:nonzero;stroke:none"
         id="path20" />
      <path
         d="m 4403.32,253.5 c -135.69,0 -164.12,62.289 -164.12,114.531 0,4.973 3.99,8.938 8.96,8.938 h 40.1 c 4.47,0 8.21,-3.219 8.9,-7.598 6.06,-40.808 24.1,-61.41 106.16,-61.41 65.33,0 93.14,14.777 93.14,49.437 0,19.981 -7.88,34.813 -109.41,44.754 -84.84,8.391 -137.32,27.137 -137.32,95.012 0,62.566 52.74,99.879 141.16,99.879 99.34,0 148.49,-34.477 154.72,-108.453 0.23,-2.551 -0.67,-4.996 -2.37,-6.902 -1.7,-1.778 -4.06,-2.86 -6.56,-2.86 h -40.25 c -4.17,0 -7.85,2.965 -8.7,7.004 -9.66,42.949 -33.14,56.676 -96.84,56.676 -71.32,0 -79.62,-24.852 -79.62,-43.465 0,-22.559 9.79,-29.121 106.09,-41.867 95.29,-12.594 140.56,-30.438 140.56,-97.41 0,-67.567 -56.34,-106.266 -154.6,-106.266"
         style="fill:#6ec72e;fill-opacity:1;fill-rule:nonzero;stroke:none"
         id="path22" />
      <path
         d="m 3317.51,506.008 c 2.35,1.363 5.26,1.363 7.62,0 l 63.11,-36.41 c 2.35,-1.364 3.81,-3.875 3.81,-6.602 v -72.871 c 0,-2.73 -1.46,-5.238 -3.81,-6.605 l -63.11,-36.407 c -2.36,-1.363 -5.27,-1.363 -7.62,0 l -63.06,36.407 c -2.36,1.367 -3.81,3.875 -3.81,6.605 v 72.871 c 0,2.727 1.45,5.238 3.81,6.602 l 63.06,36.41"
         style="fill:#6ec72e;fill-opacity:1;fill-rule:evenodd;stroke:none"
         id="path24" />
      <path
         d="m 4827.89,751.984 h 10.43 c 8.52,0 10.12,6 10.12,9.477 0,9.18 -6.33,9.18 -9.81,9.18 h -10.74 z m -12.66,29.407 h 23.09 c 7.91,0 23.41,0 23.41,-17.715 0,-12.336 -7.91,-14.86 -12.67,-16.442 9.19,-0.632 9.81,-6.644 11.07,-15.179 0.64,-5.367 1.6,-14.547 3.48,-17.703 h -14.22 c -0.33,3.156 -2.55,20.242 -2.55,21.179 -0.92,3.801 -2.21,5.688 -6.95,5.688 h -11.69 v -26.867 h -12.97 z m -27.66,-33.36 c 0,-27.832 22.45,-50.289 49.95,-50.289 27.84,0 50.29,22.93 50.29,50.289 0,27.821 -22.76,49.953 -50.29,49.953 -27.19,0 -49.95,-21.808 -49.95,-49.953 z m 109.87,-0.168 c 0,-32.879 -26.88,-59.761 -59.76,-59.761 -32.57,0 -59.76,26.558 -59.76,59.761 0,33.836 27.83,59.778 59.76,59.778 32.26,0 59.76,-25.942 59.76,-59.778"
         style="fill:#6ec72e;fill-opacity:1;fill-rule:nonzero;stroke:none"
         id="path26" />
    </g>
  </g>
</svg>
